<?xml version="1.0" standalone="no"?>
<!DOCTYPE svg PUBLIC "-//W3C//DTD SVG 20010904//EN"
 "http://www.w3.org/TR/2001/REC-SVG-20010904/DTD/svg10.dtd">
<svg version="1.0" xmlns="http://www.w3.org/2000/svg"
 width="1000.000000pt" height="1000.000000pt" viewBox="0 0 1000.000000 1000.000000"
 preserveAspectRatio="xMidYMid meet">
<metadata>
Created by potrace 1.11, written by Peter Selinger 2001-2013
</metadata>
<g transform="translate(0.000000,1000.000000) scale(0.100000,-0.100000)"
fill="#000000" stroke="none">
<path d="M7211 9421 c-11 -11 -46 -36 -78 -57 -32 -20 -100 -78 -151 -129 -80
-79 -93 -96 -90 -120 4 -35 48 -63 98 -64 37 -1 84 24 111 60 16 21 16 21 55
-32 34 -47 62 -81 143 -174 26 -31 174 -215 195 -244 10 -14 52 -60 92 -101
105 -109 324 -364 405 -472 38 -51 73 -97 77 -103 5 -5 32 -48 62 -95 30 -47
70 -107 89 -135 19 -27 44 -63 56 -80 11 -16 28 -39 37 -50 41 -48 188 -279
188 -295 0 -9 -10 -25 -21 -36 -28 -25 -69 -90 -69 -109 0 -16 29 -31 76 -39
27 -5 124 31 124 46 0 5 19 30 43 56 23 26 56 66 72 90 16 24 36 47 45 52 9 5
25 31 35 57 10 26 26 63 37 81 16 26 18 35 8 47 -11 13 -18 12 -52 -7 -21 -12
-63 -43 -94 -68 -86 -73 -99 -78 -130 -49 -14 13 -30 33 -35 44 -11 23 -50 80
-80 114 -11 13 -29 42 -41 65 -28 56 -83 139 -140 212 -27 34 -48 64 -48 67 0
9 -67 116 -94 148 -45 55 -50 62 -82 110 -42 64 -77 104 -102 118 -12 6 -22
18 -22 25 0 17 -82 118 -195 241 -98 106 -160 178 -224 260 -21 28 -56 68 -77
90 -44 46 -109 124 -144 175 -14 19 -39 47 -56 63 -56 48 -53 84 17 180 22 31
26 43 18 58 -13 24 -34 24 -58 0z"/>
<path d="M6457 8706 c-20 -30 -37 -60 -37 -65 0 -5 -6 -11 -13 -14 -7 -3 -26
-24 -42 -48 -58 -84 -155 -215 -207 -278 -29 -36 -56 -74 -61 -84 -9 -23 16
-67 38 -67 7 0 16 -4 19 -9 7 -11 -50 -39 -149 -74 -38 -14 -92 -35 -120 -47
-27 -12 -63 -26 -80 -30 -16 -5 -52 -17 -80 -27 -27 -11 -81 -28 -120 -38 -38
-11 -81 -25 -95 -32 -14 -7 -30 -13 -36 -13 -6 0 -33 -10 -60 -22 -27 -12 -55
-23 -62 -24 -8 -1 -58 -21 -112 -44 -54 -23 -104 -42 -112 -44 -7 -1 -17 -4
-23 -8 -5 -3 -68 -20 -140 -38 -71 -17 -152 -38 -179 -46 -26 -7 -56 -14 -65
-14 -9 0 -101 -30 -206 -66 -104 -37 -210 -73 -235 -81 -25 -8 -74 -25 -110
-39 -36 -13 -96 -33 -135 -45 -38 -11 -79 -24 -90 -29 -11 -5 -47 -16 -80 -24
-33 -9 -96 -27 -140 -41 -73 -23 -267 -72 -355 -90 -19 -4 -40 -11 -45 -16 -6
-4 -34 -10 -62 -13 -29 -2 -57 -7 -63 -11 -6 -4 -39 -15 -73 -25 l-63 -18 -22
48 c-12 26 -22 50 -22 54 0 3 -20 40 -45 82 -25 41 -45 79 -45 84 0 5 -12 18
-27 30 -55 43 -144 10 -184 -68 -8 -15 -22 -33 -31 -40 -10 -7 -18 -18 -18
-24 0 -5 -15 -28 -33 -51 -17 -22 -41 -55 -52 -73 -11 -18 -48 -68 -81 -112
-34 -43 -72 -99 -84 -123 -13 -24 -42 -70 -66 -102 -24 -31 -44 -61 -44 -66 0
-5 -7 -14 -15 -21 -9 -7 -40 -50 -69 -94 -30 -45 -66 -94 -81 -110 -14 -16
-49 -58 -77 -95 -28 -36 -71 -86 -96 -111 -24 -25 -57 -61 -71 -81 -90 -122
-279 -327 -359 -388 -37 -29 -43 -38 -37 -60 4 -14 15 -34 25 -44 16 -14 19
-28 15 -80 -10 -162 -10 -2539 1 -2582 3 -14 9 -25 13 -25 4 0 12 -10 18 -23
6 -12 28 -31 49 -41 22 -11 50 -30 64 -42 37 -33 221 -114 259 -114 8 0 86
-36 175 -79 216 -106 293 -141 311 -141 8 0 23 -5 33 -10 17 -10 230 -87 267
-97 23 -5 33 -10 129 -53 38 -17 76 -28 83 -26 8 3 11 1 8 -4 -3 -5 9 -16 27
-23 18 -8 74 -33 123 -57 50 -23 99 -45 110 -50 22 -9 97 -43 190 -86 33 -15
96 -42 140 -59 44 -18 100 -42 125 -53 63 -29 239 -102 244 -102 3 0 31 -16
64 -35 101 -61 258 -107 272 -80 8 14 397 215 418 215 5 0 15 6 21 14 7 8 35
25 64 38 91 42 141 68 174 89 18 11 38 22 45 23 7 2 40 15 73 31 33 16 69 30
80 32 10 2 40 16 65 30 25 15 54 28 65 30 11 1 38 11 60 22 63 31 137 59 170
64 39 7 64 16 95 37 14 9 39 22 55 28 74 26 199 83 205 92 4 6 47 25 96 41 48
17 100 39 115 49 14 11 51 28 82 40 30 11 67 30 80 40 14 11 32 20 41 20 9 0
16 5 16 10 0 6 5 10 12 10 11 0 83 31 123 52 24 13 116 58 235 115 83 39 186
83 282 120 27 10 48 22 48 26 0 5 33 24 73 44 105 51 197 103 253 144 49 35
172 99 192 99 12 0 92 41 137 70 17 11 41 25 55 32 14 7 41 25 60 40 19 14 54
37 77 50 23 13 88 50 145 83 57 32 144 79 193 104 50 24 92 47 95 51 8 11 145
80 159 80 8 0 11 6 7 16 -3 9 -6 22 -6 30 0 8 -7 14 -15 14 -8 0 -12 6 -9 14
3 8 -4 23 -16 34 -12 11 -19 25 -16 31 4 5 3 12 -2 15 -13 8 -17 178 -13 666
5 591 5 574 -2 650 -3 36 -8 108 -12 160 -3 52 -8 113 -10 135 -2 22 -6 85
-10 140 -3 55 -10 143 -16 195 -5 52 -9 111 -8 130 1 19 2 46 2 60 0 14 -3
128 -5 253 l-5 229 -29 23 c-40 32 -96 48 -127 36 -26 -10 -36 0 -85 85 -7 13
-31 40 -53 61 -23 21 -59 64 -80 96 -45 65 -225 278 -245 290 -8 4 -14 14 -14
22 0 7 -13 27 -30 43 -16 17 -30 35 -30 39 0 5 -12 20 -26 34 -14 13 -32 39
-41 57 -9 19 -23 37 -32 40 -18 7 -50 42 -51 55 0 10 -91 131 -102 135 -4 2
-8 8 -8 14 0 14 -82 135 -122 180 -18 20 -60 71 -92 113 -37 47 -65 74 -73 70
-8 -3 -11 0 -7 6 3 6 -7 27 -23 47 -16 20 -39 53 -50 72 -12 20 -33 46 -47 59
-14 14 -26 29 -26 35 0 6 -19 31 -43 56 -23 25 -46 54 -52 65 -6 10 -21 22
-35 25 -14 3 -26 14 -28 25 -6 30 -70 132 -87 139 -8 3 -15 16 -15 28 0 38
-14 49 -71 55 l-55 5 -37 -56z m122 -156 c19 -39 37 -70 42 -70 4 0 10 -9 14
-19 3 -11 32 -53 63 -95 76 -100 145 -195 164 -227 9 -14 35 -43 57 -64 22
-21 39 -41 36 -43 -2 -2 23 -36 56 -76 34 -39 65 -80 69 -91 5 -11 38 -51 74
-90 36 -38 66 -74 66 -78 0 -4 30 -45 66 -90 37 -45 81 -100 98 -121 66 -83
101 -124 170 -197 39 -42 94 -102 121 -135 28 -32 59 -68 70 -80 42 -44 121
-140 139 -168 11 -17 41 -53 68 -80 26 -28 47 -57 46 -65 -2 -7 -23 -21 -48
-30 -25 -10 -74 -31 -110 -48 -36 -17 -85 -38 -110 -48 -48 -18 -97 -39 -171
-74 -25 -11 -51 -21 -56 -21 -5 0 -18 -9 -28 -20 -10 -11 -26 -20 -34 -18 -26
3 -61 -12 -61 -27 0 -9 -6 -12 -15 -9 -8 3 -28 -4 -44 -15 -16 -12 -32 -21
-35 -21 -3 0 -39 -16 -80 -35 -41 -19 -80 -35 -86 -35 -5 0 -10 -4 -10 -10 0
-5 -6 -7 -14 -4 -7 3 -35 -8 -62 -23 -48 -28 -60 -34 -176 -87 -32 -14 -58
-29 -58 -34 0 -4 -19 -13 -43 -19 -35 -10 -278 -119 -341 -154 -74 -41 -92
-52 -96 -58 -8 -10 -94 -51 -107 -51 -7 0 -16 -6 -20 -13 -4 -8 -23 -17 -41
-20 -19 -4 -46 -15 -60 -25 -15 -11 -40 -22 -57 -26 -38 -10 -179 -77 -183
-88 -2 -4 -12 -8 -23 -8 -22 0 -165 -65 -173 -79 -3 -5 -18 -12 -33 -15 -36
-9 -111 -45 -119 -57 -3 -5 -12 -9 -20 -9 -8 0 -66 -25 -129 -55 -64 -30 -118
-55 -121 -55 -3 0 -56 -24 -117 -54 -148 -71 -183 -86 -195 -86 -5 0 -45 -16
-88 -36 -110 -50 -132 -59 -194 -83 -30 -12 -64 -26 -75 -31 -11 -5 -47 -20
-80 -34 -33 -13 -91 -37 -130 -53 -38 -16 -124 -44 -190 -63 -66 -18 -126 -38
-133 -43 -8 -6 -22 -27 -32 -48 -21 -40 -21 -111 -2 -414 5 -71 5 -143 1 -159
-12 -41 -3 -232 15 -351 9 -55 19 -197 22 -315 3 -118 9 -245 15 -282 5 -37 9
-169 9 -295 0 -125 4 -277 10 -338 5 -60 12 -166 16 -235 7 -137 29 -349 39
-392 12 -48 2 -57 -50 -47 -25 5 -74 22 -108 38 -34 16 -101 47 -149 70 -48
23 -90 41 -93 41 -6 0 -231 94 -300 125 -27 13 -106 47 -175 76 -69 29 -141
62 -160 73 -19 12 -60 33 -90 46 -30 14 -57 27 -60 31 -3 3 -36 17 -75 31 -38
14 -142 55 -230 90 -88 36 -189 75 -225 88 -36 12 -83 31 -104 41 -22 11 -44
19 -49 19 -9 0 -217 102 -277 135 -22 12 -80 39 -145 66 -11 5 -42 17 -70 27
-47 17 -50 20 -56 59 -3 23 -11 48 -17 56 -7 8 -15 55 -18 104 -2 48 -7 126
-10 173 -3 47 -8 470 -10 940 -2 470 -5 953 -6 1074 l-3 219 39 33 c24 20 41
46 45 66 5 24 26 49 81 96 118 100 118 101 216 222 50 63 117 139 148 168 73
68 193 232 244 332 9 19 43 74 75 121 31 47 57 91 57 96 0 5 9 18 21 29 31 28
51 72 44 97 -4 14 -3 17 2 10 7 -10 17 -2 39 28 16 23 36 49 46 59 9 10 24 34
33 53 16 34 122 157 135 157 7 0 70 -123 70 -137 0 -4 20 -48 44 -97 50 -104
116 -246 116 -252 0 -2 13 -33 30 -69 16 -36 30 -67 30 -70 0 -2 13 -26 28
-52 15 -26 33 -66 40 -88 6 -22 54 -124 107 -228 78 -154 163 -343 238 -531
19 -46 99 -203 146 -286 24 -41 77 -151 118 -244 41 -93 84 -182 95 -197 30
-40 63 -52 104 -37 45 16 44 43 -1 102 -19 25 -55 86 -80 137 -25 50 -54 103
-65 117 -11 13 -20 31 -20 38 0 8 -4 14 -8 14 -5 0 -9 6 -9 13 0 19 -39 100
-89 183 -24 42 -44 81 -44 88 0 8 -9 25 -20 39 -11 14 -20 32 -20 41 0 9 -11
33 -24 54 -12 20 -23 39 -24 42 -2 13 -14 47 -23 62 -5 10 -9 25 -9 33 0 8 -4
23 -10 33 -11 19 -60 132 -60 138 0 2 6 4 14 4 13 0 94 31 171 65 17 7 51 16
76 19 26 3 66 13 90 21 24 9 51 18 59 19 8 2 40 14 70 28 30 13 78 30 105 37
82 21 169 53 185 66 8 7 31 16 50 20 19 4 46 14 60 23 14 9 29 15 33 14 4 -1
58 22 120 52 62 29 137 64 167 76 30 12 63 26 72 31 10 5 26 9 36 9 22 0 75
25 117 55 56 39 204 89 205 69 1 -5 1 -225 2 -489 0 -294 4 -496 11 -520 5
-22 9 -65 9 -95 -1 -39 4 -65 18 -88 23 -38 40 -47 75 -38 36 9 50 41 37 85
-34 116 -63 283 -53 295 13 16 17 68 7 85 -6 9 -5 12 1 8 6 -4 10 7 10 26 0
18 1 68 2 112 3 82 -4 346 -14 535 -5 87 -9 108 -26 126 -22 23 -19 28 24 38
15 4 27 13 27 22 0 9 18 38 40 64 22 26 37 50 34 52 -3 3 12 23 33 45 105 110
143 154 143 163 0 5 9 15 21 22 27 17 59 80 59 118 0 26 -4 30 -27 30 -28 0
-50 -21 -232 -223 -57 -64 -120 -133 -141 -154 -20 -22 -40 -51 -44 -66 -5
-23 -9 -25 -30 -17 -17 6 -28 5 -35 -3 -5 -7 -36 -21 -68 -31 -32 -10 -88 -31
-126 -47 -37 -16 -72 -29 -79 -29 -6 0 -30 -9 -52 -19 -88 -41 -259 -109 -316
-126 -14 -4 -47 -18 -74 -31 -28 -13 -55 -24 -61 -24 -6 0 -29 -9 -50 -21 -50
-26 -134 -56 -205 -74 -30 -8 -102 -32 -160 -54 -58 -21 -136 -48 -175 -60
-38 -11 -117 -36 -174 -56 -98 -33 -105 -34 -118 -17 -12 15 -68 128 -134 268
-22 48 -24 77 -6 92 24 19 215 82 250 82 20 0 38 4 42 9 3 5 29 17 58 26 28 9
60 21 71 26 10 6 53 21 96 34 42 13 96 33 119 45 24 11 68 23 99 26 30 2 58 8
62 13 3 6 20 9 37 9 22 -1 43 8 68 30 31 28 43 32 90 32 40 0 78 10 152 41 54
22 110 47 126 55 15 9 37 17 50 19 12 3 31 9 42 14 32 15 117 41 135 41 9 0
33 9 55 20 21 11 54 23 72 26 18 3 36 10 39 15 3 5 16 9 30 9 13 0 24 4 24 9
0 4 17 20 38 34 37 24 45 25 165 29 28 0 118 28 134 40 6 5 40 12 75 16 34 4
62 12 61 18 -2 11 202 84 233 84 9 0 31 10 48 23 49 37 112 57 179 57 72 0
139 16 220 53 32 15 62 27 67 27 5 0 24 9 42 20 20 12 51 20 78 20 27 0 65 10
95 25 28 13 56 25 62 25 7 0 24 18 39 39 26 41 39 129 23 161 -4 8 -13 35 -20
60 -28 95 -59 126 -190 188 -74 36 -101 39 -119 17 -7 -8 -19 -15 -26 -15 -29
0 -7 47 32 68 11 6 33 37 49 69 16 32 52 88 79 125 28 36 71 96 96 132 25 36
47 66 50 65 3 0 20 -31 39 -69z m-212 -561 c71 -17 91 -29 102 -59 18 -52 -27
-87 -166 -129 -40 -12 -89 -31 -110 -41 -21 -10 -76 -30 -123 -44 -47 -15
-132 -43 -190 -62 -58 -19 -136 -44 -175 -56 -38 -11 -115 -34 -170 -50 -55
-16 -145 -45 -200 -64 -55 -20 -129 -44 -165 -53 -36 -10 -97 -32 -136 -49
-40 -18 -95 -37 -124 -43 -28 -6 -64 -17 -78 -25 -15 -8 -33 -14 -39 -14 -22
0 -212 -66 -325 -113 -59 -24 -137 -53 -173 -63 -36 -10 -65 -23 -65 -29 0 -5
-12 -10 -27 -11 -41 -2 -272 -86 -345 -126 -36 -20 -80 -39 -99 -43 -19 -4
-54 -15 -79 -25 -25 -10 -99 -35 -165 -55 -66 -20 -153 -48 -193 -62 -71 -24
-74 -24 -87 -6 -8 10 -15 26 -15 35 0 9 -4 19 -9 22 -10 7 -76 139 -85 171 -5
17 3 23 52 38 58 17 108 29 217 48 33 6 85 17 115 24 30 8 71 17 90 20 20 3
71 16 115 30 75 24 199 57 324 85 30 7 70 21 90 30 38 19 95 39 196 69 33 10
67 21 75 24 8 3 44 16 80 27 36 12 74 28 86 35 12 8 50 19 85 25 35 7 69 15
74 20 6 4 35 11 65 15 30 4 71 14 90 22 19 8 43 16 53 18 10 2 44 13 75 24 31
11 91 27 132 36 135 31 184 47 240 83 19 12 41 22 48 22 7 0 29 8 50 19 20 10
62 22 92 26 30 4 77 18 105 31 27 12 82 32 120 44 39 11 86 32 105 45 19 13
55 29 80 35 25 6 79 27 120 47 73 36 152 60 197 62 13 1 44 -4 70 -10z m1765
-1383 c0 -17 2 -65 3 -106 8 -292 23 -488 54 -705 12 -77 27 -183 34 -235 14
-94 16 -529 5 -1232 l-4 -257 -44 -34 c-25 -18 -67 -45 -95 -58 -165 -83 -250
-129 -330 -179 -49 -31 -130 -78 -180 -105 -121 -64 -163 -88 -277 -157 -53
-32 -103 -58 -111 -58 -8 0 -20 -6 -26 -14 -6 -8 -33 -23 -59 -35 -26 -12 -54
-26 -62 -31 -23 -15 -232 -130 -236 -130 -12 0 -290 -143 -292 -151 -2 -5 -9
-9 -16 -9 -7 0 -62 -23 -122 -51 -60 -28 -125 -58 -144 -66 -19 -9 -67 -31
-106 -49 -39 -19 -74 -34 -78 -34 -4 0 -48 -19 -99 -43 -233 -109 -414 -187
-420 -181 -2 3 -10 -2 -17 -11 -7 -8 -18 -15 -25 -15 -15 0 -215 -73 -272
-100 -24 -11 -45 -20 -47 -20 -3 0 -37 -15 -78 -34 -62 -29 -124 -55 -188 -80
-8 -3 -22 -10 -30 -15 -8 -5 -40 -19 -70 -31 -54 -22 -265 -122 -384 -182 -33
-16 -81 -38 -107 -48 l-48 -19 -6 28 c-3 15 -8 79 -10 142 -3 63 -7 137 -10
164 -2 28 -7 97 -10 155 -4 58 -11 148 -16 200 -5 52 -12 223 -15 380 -3 157
-9 331 -15 388 -5 56 -7 107 -4 113 4 5 4 18 0 27 -4 9 -8 91 -10 182 -2 98
-9 191 -17 230 -11 49 -14 102 -9 215 7 188 7 242 -3 387 l-8 117 37 -10 c26
-8 41 -7 48 0 6 6 17 11 25 11 8 0 37 14 64 30 26 17 53 30 60 30 6 0 29 9 52
19 79 36 201 89 224 96 15 4 21 12 18 21 -4 12 -2 12 14 4 19 -10 54 0 100 29
8 5 31 17 50 25 19 9 42 20 50 25 26 15 104 49 130 56 22 7 138 59 275 125 69
33 128 56 199 79 38 13 91 38 117 56 44 30 137 78 234 120 22 10 58 26 81 36
22 11 47 19 55 19 8 0 38 16 68 35 29 19 55 35 58 35 3 0 37 15 76 34 85 41
133 61 167 71 14 4 33 14 42 22 17 16 165 83 181 83 5 0 28 13 51 28 23 16 55
32 70 36 25 6 120 49 316 144 41 20 86 44 99 54 13 10 33 18 44 18 11 0 41 13
66 28 51 31 142 75 180 87 14 4 59 25 100 46 42 21 79 39 84 39 4 0 26 12 50
27 23 14 59 30 80 35 22 5 45 15 52 22 8 8 31 17 52 21 21 4 43 10 48 15 23
19 189 100 204 100 10 0 25 6 35 13 30 22 46 16 48 -17z m-1272 -486 c0 -5 -5
-10 -11 -10 -5 0 -7 5 -4 10 3 6 8 10 11 10 2 0 4 -4 4 -10z m-3305 -110 c3
-5 -1 -10 -9 -10 -8 0 -18 5 -21 10 -3 6 1 10 9 10 8 0 18 -4 21 -10z m3630
-2680 c3 -5 1 -10 -4 -10 -6 0 -11 5 -11 10 0 6 2 10 4 10 3 0 8 -4 11 -10z"/>
<path d="M835 5775 c-5 -2 -55 -13 -110 -25 -147 -32 -185 -43 -201 -61 -25
-27 -7 -47 49 -54 29 -3 59 -8 67 -11 13 -3 15 -110 16 -876 2 -786 5 -1022
19 -1228 2 -36 7 -160 10 -275 l7 -210 -44 -13 c-63 -19 -102 -52 -94 -80 8
-24 9 -24 156 -10 155 15 270 60 270 108 0 8 -7 26 -16 38 -15 22 -21 23 -78
17 -92 -10 -95 -5 -89 147 8 189 8 358 1 528 -4 85 -7 223 -7 305 -1 329 -3
533 -7 595 -12 202 1 931 17 961 5 10 23 16 48 17 21 1 51 6 65 12 14 5 26 7
26 4 0 -3 14 3 30 13 23 13 30 24 30 50 0 17 -6 35 -12 40 -13 7 -133 14 -153
8z"/>
<path d="M9101 3336 c-20 -24 0 -75 50 -131 27 -29 49 -58 49 -64 0 -17 -60
-50 -167 -93 -51 -20 -131 -63 -179 -95 -47 -32 -96 -63 -107 -70 -12 -7 -26
-18 -32 -25 -5 -8 -29 -20 -52 -27 -24 -8 -50 -23 -60 -33 -10 -11 -62 -41
-118 -68 -55 -27 -111 -55 -125 -64 -42 -25 -238 -116 -251 -116 -6 0 -25 -6
-42 -14 -18 -8 -54 -22 -82 -31 -27 -9 -65 -25 -83 -36 -18 -10 -39 -19 -46
-19 -6 0 -34 -11 -62 -24 -27 -13 -85 -39 -129 -57 -44 -18 -98 -42 -120 -55
-22 -12 -51 -25 -65 -29 -14 -4 -45 -16 -70 -27 -40 -17 -78 -34 -265 -123
-59 -27 -195 -86 -267 -114 -13 -5 -57 -24 -98 -43 -41 -20 -95 -43 -120 -53
-25 -10 -68 -28 -96 -41 -28 -12 -70 -28 -92 -34 -23 -6 -44 -15 -47 -20 -4
-6 -10 -8 -14 -6 -4 3 -62 -14 -127 -38 -65 -24 -164 -60 -219 -80 -55 -20
-109 -40 -120 -45 -11 -5 -45 -18 -75 -29 -30 -10 -84 -31 -120 -45 -36 -15
-108 -42 -160 -62 -149 -57 -173 -66 -205 -80 -16 -8 -48 -19 -70 -26 -22 -7
-45 -16 -50 -20 -6 -4 -69 -26 -140 -50 -72 -23 -137 -48 -146 -55 -8 -8 -23
-14 -32 -14 -9 0 -19 -5 -22 -10 -3 -5 -14 -10 -24 -10 -10 0 -29 -8 -42 -18
-13 -10 -46 -26 -72 -36 l-49 -18 -34 33 c-30 29 -41 34 -77 32 -57 -3 -84
-19 -91 -56 -6 -31 14 -67 39 -67 7 0 68 -64 136 -142 199 -227 200 -228 246
-238 47 -11 81 -2 113 30 28 28 26 64 -5 80 -14 8 -42 35 -62 62 -21 26 -40
48 -44 48 -4 0 -17 16 -28 36 -24 41 -23 43 48 80 20 10 49 29 64 41 16 13 39
23 52 23 13 0 27 4 30 10 3 5 14 10 24 10 16 0 79 26 123 50 10 6 25 10 33 10
15 0 54 16 161 66 28 13 57 24 64 24 6 0 29 13 49 29 20 15 54 34 76 41 22 7
54 20 71 30 17 9 55 25 85 35 30 9 84 33 122 51 37 19 70 33 75 32 16 -3 102
25 113 38 6 8 20 14 31 14 11 0 32 6 46 14 15 7 50 21 77 29 28 9 93 32 145
51 52 20 101 36 109 36 8 0 35 9 60 21 25 11 55 24 66 28 11 4 40 17 65 28 25
11 81 35 125 53 89 36 222 96 245 111 16 10 39 20 115 52 28 12 57 27 66 34 8
7 24 13 35 13 11 0 24 4 30 9 5 5 43 23 85 40 42 16 92 39 110 50 19 12 42 21
52 21 9 0 17 5 17 10 0 6 8 10 18 10 10 0 27 7 38 15 10 8 28 15 39 15 11 1
43 15 70 31 28 16 57 32 65 35 56 22 170 69 197 80 17 8 36 14 43 14 7 0 26 6
43 14 18 8 63 27 100 41 72 28 292 138 317 159 8 7 62 36 120 65 97 49 180
103 188 123 2 5 20 15 39 23 19 8 66 35 103 60 37 25 74 45 82 45 7 0 31 9 53
20 22 11 47 20 56 20 9 0 27 11 40 25 19 19 34 25 71 25 47 0 48 -1 114 -80
36 -44 74 -85 84 -90 33 -18 69 -11 102 19 31 28 32 30 18 57 -8 16 -44 58
-80 94 -36 36 -99 101 -141 145 -89 94 -167 165 -181 165 -5 0 -16 7 -24 15
-19 19 -58 19 -73 1z"/>
<path d="M1072 2549 c-20 -36 -43 -64 -58 -69 -15 -6 -32 -27 -43 -52 -11 -24
-34 -60 -53 -80 -18 -20 -41 -50 -51 -65 -31 -50 -66 -98 -89 -120 -19 -20
-20 -25 -9 -46 17 -33 81 -66 106 -56 11 4 32 8 46 8 27 1 66 35 123 106 27
33 34 37 67 32 38 -5 118 -40 174 -76 17 -11 36 -20 43 -20 13 -1 54 -18 158
-67 28 -13 57 -24 65 -24 8 0 28 -7 44 -16 17 -9 59 -25 95 -37 36 -11 81 -30
100 -42 30 -18 59 -33 80 -40 27 -9 93 -46 128 -72 24 -17 56 -35 73 -38 16
-4 29 -10 29 -14 0 -5 46 -23 103 -40 56 -17 114 -39 130 -47 15 -8 31 -13 36
-9 6 3 14 -2 19 -11 6 -10 16 -15 26 -11 9 4 37 -6 66 -23 27 -16 83 -46 125
-67 41 -21 90 -46 108 -55 17 -9 39 -17 48 -18 9 0 43 -13 75 -30 32 -16 71
-30 86 -30 15 0 31 -7 36 -16 5 -9 25 -22 43 -29 19 -7 97 -37 174 -67 77 -29
175 -65 217 -78 44 -14 72 -27 66 -31 -8 -5 -1 -12 18 -19 34 -14 38 -16 92
-52 23 -15 65 -36 94 -46 52 -19 53 -19 51 -58 -1 -21 -13 -64 -27 -94 -37
-79 -35 -87 30 -116 31 -14 57 -24 58 -22 1 2 15 37 30 78 16 41 37 98 48 125
10 28 21 61 24 75 13 70 19 87 45 130 18 29 29 61 29 82 0 30 -5 37 -31 48
-29 12 -33 12 -50 -11 -10 -13 -19 -28 -19 -34 -1 -14 -47 -65 -59 -65 -12 0
-202 93 -381 185 -69 36 -150 72 -180 80 -30 9 -66 21 -80 27 -28 12 -29 12
-150 59 -69 26 -355 162 -435 206 -11 6 -38 20 -60 31 -22 11 -53 27 -70 35
-29 16 -164 78 -237 111 -20 9 -41 16 -47 16 -6 0 -27 9 -48 19 -21 11 -50 25
-65 30 -16 6 -28 15 -28 21 0 5 -4 10 -10 10 -13 0 -133 58 -190 92 -42 25
-75 40 -220 98 -80 32 -263 120 -280 135 -8 7 -33 18 -55 25 -55 17 -67 29
-60 57 9 38 -24 129 -52 142 -13 6 -27 11 -31 11 -4 0 -22 -27 -40 -61z"/>
</g>
</svg>
